<svg xmlns="http://www.w3.org/2000/svg" viewBox="0 0 512 512" fill="none">
  <path d="M256 0C114.6 0 0 114.6 0 256s114.6 256 256 256 256-114.6 256-256S397.4 0 256 0z" fill="#0081FB"/>
  <path d="M170.7 164.5c-24.2 0-45.3 17.9-62.8 46.5-22.8 37.3-36 82.9-36 117.5 0 27.7 10.5 47.5 34.5 47.5 23.1 0 40.5-19.3 62.5-56.2l18.1-30.4c15.4-25.8 33.1-55.5 55.6-55.5h3.4c-15.7-42.4-42.6-69.4-75.3-69.4zm170.6 0c-32.7 0-59.6 27-75.3 69.4h3.4c22.5 0 40.2 29.7 55.6 55.5l18.1 30.4c22 36.9 39.4 56.2 62.5 56.2 24 0 34.5-19.8 34.5-47.5 0-34.6-13.2-80.2-36-117.5-17.5-28.6-38.6-46.5-62.8-46.5zm-85 69.5c-14.2 0-27.6 12.4-40.2 33.5L197.3 300c-19.4 32.5-36.3 55.2-55 65.5 14.2 7.1 28.1 10.5 41.8 10.5 31.3 0 52.9-21.4 72.6-55.1l5.3-9.1 5.3 9.1c19.7 33.7 41.3 55.1 72.6 55.1 13.7 0 27.6-3.4 41.8-10.5-18.7-10.3-35.6-33-55-65.5l-18.8-32.5c-12.6-21.1-26-33.5-40.2-33.5h-12z" fill="white"/>
</svg>
