<svg xmlns="http://www.w3.org/2000/svg" width="139" height="24" fill="none" viewBox="0 0 139 24" data-fc-idx="0"><path stroke="currentColor" stroke-linecap="round" stroke-linejoin="round" stroke-width="2" d="m14 13-2-3-2 3" style="fill: none !important; stroke: lab(15.0353 1.96067 1.53427) !important; stroke-width: 2px !important; stroke-linecap: round !important; stroke-linejoin: round !important;"/><path stroke="currentColor" stroke-linejoin="round" stroke-width="2" d="M14.5 5.5C14.5 8 12 10 12 10S9.5 8 9.5 5.5 10.62 2 12 2s2.5 1 2.5 3.5ZM18.5 15.5C16 15.5 14 13 14 13s2-2.5 4.5-2.5S22 11.62 22 13s-1 2.5-3.5 2.5ZM5.5 15.5C8 15.5 10 13 10 13s-2-2.5-4.5-2.5S2 11.62 2 13s1 2.5 3.5 2.5Z" style="fill: none !important; stroke: lab(15.0353 1.96067 1.53427) !important; stroke-width: 2px !important; stroke-linejoin: round !important;"/><path stroke="currentColor" stroke-linecap="round" stroke-linejoin="round" stroke-width="2" d="M16 22s-3-6-6-9" style="fill: none !important; stroke: lab(15.0353 1.96067 1.53427) !important; stroke-width: 2px !important; stroke-linecap: round !important; stroke-linejoin: round !important;"/><path stroke="currentColor" stroke-linecap="round" stroke-linejoin="round" stroke-width="2" d="M8 22s3-6 6-9" style="fill: none !important; stroke: lab(15.0353 1.96067 1.53427) !important; stroke-width: 2px !important; stroke-linecap: round !important; stroke-linejoin: round !important;"/><path fill="currentColor" d="m32 17.834 4.987-11.635h2.137l4.954 11.635h-2.27l-2.982-7.014a50 50 0 0 0-.248-.648q-.133-.383-.299-.798-.15-.433-.298-.814-.132-.4-.215-.665l.48-.017q-.1.35-.248.748-.134.382-.282.781l-.298.765q-.15.365-.265.698l-2.983 6.964zm2.237-2.593.778-1.878h5.915l.613 1.878zM51.681 17.934q-1.54 0-2.717-.649a4.86 4.86 0 0 1-1.856-1.778q-.662-1.147-.662-2.576V6.183h2.17v6.631q0 .898.414 1.596.414.697 1.11 1.114.696.415 1.541.415.912 0 1.624-.415.712-.416 1.126-1.114.415-.697.415-1.596V6.183h2.087v6.748q0 1.429-.68 2.576a4.74 4.74 0 0 1-1.838 1.778q-1.177.649-2.734.648M63.678 17.834v-9.64H59.9V6.199h9.809v1.995h-3.877v9.64zM77.821 18q-1.376 0-2.535-.449-1.143-.448-2.005-1.263a5.6 5.6 0 0 1-1.325-1.911A6 6 0 0 1 71.492 12q0-1.28.464-2.377a5.6 5.6 0 0 1 1.325-1.911 6.2 6.2 0 0 1 2.005-1.263q1.16-.45 2.535-.449 1.376 0 2.535.449t2.005 1.28q.845.814 1.309 1.91.48 1.082.48 2.361 0 1.263-.48 2.36a5.9 5.9 0 0 1-1.31 1.928 5.9 5.9 0 0 1-2.004 1.263q-1.16.45-2.535.449m0-2.06q.912 0 1.657-.284a3.9 3.9 0 0 0 1.309-.83q.563-.549.861-1.264.315-.714.315-1.562t-.315-1.562a3.6 3.6 0 0 0-.861-1.247 3.6 3.6 0 0 0-1.31-.83q-.744-.3-1.656-.3-.895 0-1.657.3a3.74 3.74 0 0 0-2.17 2.077A4 4 0 0 0 73.696 12q0 .848.298 1.562a3.9 3.9 0 0 0 .845 1.264q.563.531 1.325.83a4.7 4.7 0 0 0 1.657.283M91.803 18a8.4 8.4 0 0 1-2.104-.25 6.1 6.1 0 0 1-1.707-.764 7 7 0 0 1-1.375-1.213l1.325-1.662q.961 1.113 1.906 1.562t2.07.449q.648 0 1.21-.166.564-.166.912-.499.347-.35.347-.831a.92.92 0 0 0-.165-.548 1.3 1.3 0 0 0-.464-.416 3 3 0 0 0-.68-.316 6 6 0 0 0-.811-.216 11 11 0 0 0-.895-.166q-.995-.165-1.773-.449a4.5 4.5 0 0 1-1.309-.714 3.1 3.1 0 0 1-.811-1.03q-.266-.583-.266-1.347 0-.765.348-1.396a3.4 3.4 0 0 1 .994-1.08q.647-.45 1.475-.699A6.4 6.4 0 0 1 91.836 6q1.077 0 1.922.233a4.8 4.8 0 0 1 1.508.681q.645.45 1.093 1.064L95.001 9.44a3.8 3.8 0 0 0-.895-.847 3.5 3.5 0 0 0-1.094-.515 4 4 0 0 0-1.21-.183q-.695 0-1.225.166-.514.165-.829.482-.297.315-.298.764 0 .35.182.615.2.267.547.466.364.2.862.332.514.133 1.126.233.944.166 1.757.415.81.25 1.408.632.613.382.944.947.332.55.332 1.33 0 1.147-.613 1.995-.597.83-1.674 1.28-1.077.447-2.518.448M100.036 17.834V6.199h8.516v1.962h-6.395v7.712h6.462v1.96zm1.061-4.986V10.92h6.61v1.928zM112.446 17.834V6.199h2.005l7.654 9.092-.298.066a15 15 0 0 1-.132-1.013q-.05-.533-.1-1.08l-.066-1.131-.033-1.18V6.2h2.137v11.634h-2.038l-7.687-8.959.364-.116a62 62 0 0 0 .199 2.244q.05.449.066.847a18 18 0 0 1 .067 1.48v4.504zM127.833 17.834V6.199h5.186q1.392 0 2.485.433 1.11.432 1.889 1.23.795.797 1.193 1.861.414 1.047.414 2.294 0 1.262-.414 2.327a5.1 5.1 0 0 1-1.177 1.844 5.4 5.4 0 0 1-1.888 1.214q-1.11.432-2.502.432zm2.154-1.679-.166-.316h3.115q.945 0 1.657-.282a3.2 3.2 0 0 0 1.209-.798q.482-.515.729-1.197.249-.698.249-1.545 0-.831-.249-1.53a3.3 3.3 0 0 0-.745-1.213 3.24 3.24 0 0 0-1.193-.798q-.712-.282-1.657-.282h-3.164l.215-.283z" style="fill: lab(15.0353 1.96067 1.53427) !important;"/></svg>