<?xml version="1.0" encoding="UTF-8"?>
<svg xmlns="http://www.w3.org/2000/svg" width="1086" height="166" viewBox="0 0 1086 166" fill="none">
  <g clip-path="url(#clip0_4076_21636)">
    <path d="M174.68 103.19L198.51 61.91H121.49L61.9199 165.11H103.19L138.94 103.19H174.68Z" fill="#00A5FA"></path>
    <path d="M174.68 41.27L198.51 0H95.32L0 165.11H41.28L112.77 41.27H174.68Z" fill="#0071F5"></path>
    <path d="M74.68 0H23.83L0 41.27H50.85L74.68 0Z" fill="#0071F5"></path>
    <path d="M198.51 123.83H147.66L123.83 165.11H174.68L198.51 123.83Z" fill="#00DAFE"></path>
    <path d="M383.58 10.85V35.37H343.22V162.31H312.84V35.37H272.48V10.85H383.58Z" fill="#001B39"></path>
    <path d="M441.63 45.78C448.219 42.0918 455.67 40.2213 463.22 40.36V72.26H455.22C445.673 72.26 438.477 74.5 433.63 78.98C428.783 83.46 426.36 91.2733 426.36 102.42V162.31H396V42.09H426.38V60.76C430.114 54.5566 435.361 49.4024 441.63 45.78Z" fill="#001B39"></path>
    <path d="M473.31 69.44C477.724 60.4952 484.569 52.9748 493.06 47.74C501.459 42.6476 511.119 40.0144 520.94 40.14C529.907 40.14 537.753 41.95 544.48 45.57C550.827 48.8563 556.353 53.5283 560.65 59.24V42.09H591.25V162.31H560.65V144.73C556.461 150.626 550.915 155.427 544.48 158.73C537.147 162.533 528.978 164.437 520.72 164.27C510.941 164.369 501.34 161.655 493.06 156.45C484.576 151.076 477.741 143.462 473.31 134.45C468.437 124.957 466 114.063 466 101.77C466 89.6233 468.437 78.8467 473.31 69.44ZM556.31 83.22C553.622 78.1472 549.56 73.9332 544.59 71.06C539.779 68.269 534.312 66.809 528.75 66.83C523.166 66.773 517.673 68.2509 512.871 71.1024C508.069 73.9539 504.143 78.0694 501.52 83C498.553 88.28 497.07 94.5367 497.07 101.77C496.919 108.378 498.451 114.916 501.52 120.77C504.222 125.914 508.274 130.224 513.24 133.24C517.911 136.09 523.279 137.592 528.75 137.58C534.312 137.601 539.779 136.141 544.59 133.35C549.56 130.481 553.622 126.27 556.31 121.2C559.203 115.92 560.65 109.587 560.65 102.2C560.65 94.8133 559.203 88.4867 556.31 83.22Z" fill="#001B39"></path>
    <path d="M610.67 69.44C615.049 60.5234 621.872 53.0351 630.343 47.8475C638.815 42.66 648.587 39.987 658.52 40.14C666.26 40.124 673.902 41.8679 680.87 45.24C687.537 48.3032 693.348 52.9601 697.79 58.8V1.72998H728.61V162.31H697.79V144.52C693.877 150.599 688.43 155.538 682 158.84C675.2 162.447 667.316 164.257 658.35 164.27C648.534 164.357 638.898 161.644 630.57 156.45C622.042 151.098 615.17 143.481 610.72 134.45C605.873 124.97 603.45 114.083 603.45 101.79C603.416 89.63 605.823 78.8466 610.67 69.44ZM693.67 83.22C690.992 78.1561 686.949 73.9436 682 71.06C677.189 68.269 671.721 66.809 666.16 66.83C660.567 66.7638 655.063 68.2373 650.252 71.0893C645.44 73.9413 641.506 78.0618 638.88 83C635.906 88.28 634.423 94.5366 634.43 101.77C634.279 108.378 635.81 114.916 638.88 120.77C641.582 125.914 645.633 130.224 650.6 133.24C655.27 136.09 660.638 137.592 666.11 137.58C671.689 137.607 677.175 136.143 682 133.34C686.967 130.468 691.028 126.258 693.72 121.19C696.606 115.91 698.053 109.577 698.06 102.19C698.066 94.8033 696.603 88.48 693.67 83.22Z" fill="#001B39"></path>
    <path d="M859.461 111.32H771.571C772.291 119.987 775.331 126.783 780.691 131.71C786.063 136.64 793.142 139.286 800.43 139.09C811.724 139.09 819.754 134.243 824.521 124.55H857.29C853.908 135.987 846.886 146.007 837.29 153.09C827.45 160.537 815.37 164.263 801.05 164.27C790.177 164.444 779.446 161.787 769.91 156.56C760.804 151.505 753.347 143.933 748.43 134.75C743.29 125.35 740.724 114.5 740.73 102.2C740.73 89.76 743.261 78.84 748.321 69.44C753.141 60.2857 760.535 52.7423 769.591 47.74C778.704 42.6733 789.19 40.14 801.05 40.14C811.747 39.9612 822.313 42.5005 831.761 47.52C840.663 52.3059 847.978 59.5825 852.811 68.46C857.824 77.4867 860.327 87.8667 860.321 99.6C860.35 103.523 860.063 107.443 859.461 111.32ZM828.86 90.92C828.707 83.1067 825.887 76.85 820.401 72.15C814.914 67.45 808.187 65.1 800.22 65.1C792.694 65.1 786.36 67.3767 781.22 71.93C776.08 76.4833 772.934 82.8167 771.781 90.93L828.86 90.92Z" fill="#001B39"></path>
    <path d="M903.07 1.72998V162.31H872.69V1.72998H903.07Z" fill="#001B39"></path>
    <path d="M953.63 1.72998V162.31H923.25V1.72998H953.63Z" fill="#001B39"></path>
    <path d="M1084.7 111.32H996.82C997.54 119.987 1000.58 126.783 1005.93 131.71C1011.31 136.64 1018.39 139.287 1025.68 139.09C1036.96 139.09 1044.99 134.243 1049.76 124.55H1082.53C1079.15 135.987 1072.13 146.008 1062.53 153.09C1052.69 160.537 1040.61 164.263 1026.29 164.27C1015.42 164.447 1004.68 161.789 995.15 156.56C986.039 151.51 978.58 143.937 973.67 134.75C968.557 125.35 966 114.5 966 102.2C966 89.76 968.533 78.84 973.6 69.44C978.414 60.2843 985.805 52.7401 994.86 47.74C1003.98 42.6733 1014.47 40.14 1026.33 40.14C1037.02 39.9625 1047.59 42.5018 1057.03 47.52C1065.91 52.3136 1073.21 59.5896 1078.03 68.46C1083.02 77.5 1085.52 87.88 1085.52 99.6C1085.57 103.523 1085.29 107.442 1084.7 111.32ZM1054.1 90.92C1053.96 83.1067 1051.14 76.85 1045.64 72.15C1040.14 67.45 1033.41 65.1 1025.46 65.1C1017.94 65.1 1011.61 67.3767 1006.46 71.93C1001.31 76.4833 998.167 82.8167 997.02 90.93L1054.1 90.92Z" fill="#001B39"></path>
  </g>
  <defs>
    <clipPath id="clip0_4076_21636">
      <rect width="1085.57" height="165.11" fill="white"></rect>
    </clipPath>
  </defs>
</svg>
